<svg xmlns="http://www.w3.org/2000/svg" viewBox="0 0 1046.5 913.5"><defs><style>.cls-1{fill:none;}.cls-2{fill:#fff;}</style></defs><g id="Capa_2" data-name="Capa 2"><g id="Capa_4" data-name="Capa 4"><polygon class="cls-1" points="1046.5 913.5 0 913.5 0 913.5 0 0 1046.5 0 1046.5 913.5 1046.5 913.5"/><path class="cls-2" d="M399.46,621.13,316.18,331.58q-11.87-41.22-23.72-82.45a56.15,56.15,0,0,0-24.81-32.27c-11.58-6.78-28.64-9.65-41.61-5.45s-25.68,12.33-32.27,24.82c-6.76,12.78-9.53,27.41-5.45,41.61Q230,422.62,271.61,567.39l23.71,82.45a56.12,56.12,0,0,0,24.82,32.27c11.57,6.78,28.63,9.65,41.61,5.45s25.67-12.33,32.27-24.82c6.75-12.78,9.53-27.41,5.44-41.61Z"/><path class="cls-2" d="M745.52,607.22,612.31,420l-38.23-53.73a54.31,54.31,0,0,0-19.37-19.37,54,54,0,0,0-73.88,19.37l-140.38,189Q320.61,582,300.77,608.73c-7.83,10.54-8.77,29.55-5.45,41.61,3.45,12.53,13.14,26.1,24.82,32.27,12.53,6.62,27.71,9.94,41.61,5.45l12.9-5.45A54.31,54.31,0,0,0,394,663.24q70.19-94.53,140.38-189,19.85-26.73,39.68-53.45H480.83Q547.43,514.37,614,608q19.11,26.88,38.23,53.74c8.33,11.71,18,20.88,32.27,24.82,12.92,3.55,30.14,2,41.61-5.45s21.68-18.5,24.81-32.27c3.06-13.44,2.88-29.92-5.44-41.61Z"/><path class="cls-2" d="M751.46,649.84l88-288,25-82c4-13.18,1.45-29.84-5.44-41.61-6.55-11.2-19.4-21.88-32.27-24.82-13.83-3.14-29.34-2.46-41.61,5.45-12,7.75-20.59,18.41-24.82,32.27l-88,288-25,82c-4,13.18-1.44,29.84,5.45,41.61,6.55,11.2,19.39,21.88,32.27,24.82,13.82,3.14,29.34,2.46,41.61-5.45,12-7.75,20.58-18.41,24.81-32.27Z"/></g></g></svg>